<?xml version="1.0" encoding="utf-8"?>
<!-- Generator: Adobe Illustrator 25.2.0, SVG Export Plug-In . SVG Version: 6.00 Build 0)  -->
<svg version="1.1" id="Layer_1" xmlns="http://www.w3.org/2000/svg" xmlns:xlink="http://www.w3.org/1999/xlink" x="0px" y="0px"
	 viewBox="0 0 612 110.42" style="enable-background:new 0 0 612 110.42;" xml:space="preserve">
<style type="text/css">
	.st0{fill:#748CA8;}
</style>
<g>
	<g>
		<path class="st0" d="M76.93,62.09c4.81,1.84,11.14,1.15,16.1,0.53c6.01-0.75,11.83-2.4,15.78-7.32
			c3.12-3.89,3.78-10.86-2.39-12.24c-5.75-1.29-11.05,5.19-13.48,9.52c-0.3,0.53-0.18,1.44,0.45,1.71
			c11.56,4.93,13.17,21,2.07,27.51c-5.71,3.35-13.37,2.27-19.27-0.1c-4.32-1.73-11.47-6.89-7.98-12.2
			c-0.47,0.19-0.94,0.38-1.41,0.57c12.68,4.09,27.13,8.74,40.37,4.35c9.28-3.08,18.03-10.82,19.32-20.94
			c1.45-11.37-7.48-21.38-17.2-25.88C99.32,23,87.6,23.01,77.8,28.09c-9.86,5.12-17.38,14.98-19.07,26.03
			c-1.8,11.78,4.47,21.55,14,27.92c10.34,6.91,23.27,10.3,35.61,10.63c8.05,0.22,21.7-1.25,22.96-11.55
			c0.79-6.52-4.83-11.78-9.19-15.77c-5.04-4.61-10.64-8.61-16.63-11.87c-5.99-3.26-12.4-5.81-19-7.52
			c-4.75-1.23-14.02-2.74-13.75-9.27c-0.31,0.4-0.61,0.8-0.92,1.21c14.51-5.03,34.04-5.68,43.36,9.01
			c4.22,6.65,3.15,15.21,7.74,21.68c3.43,4.83,8.99,8.33,15.01,8.41c11.16,0.14,19.86-13.89,11.86-22.92
			c-8.81-9.94-25.96-4.55-36.34-0.9c-15.23,5.36-29.86,13.43-46.2,14.86c-7.12,0.63-14.46,0.1-21.15-2.55
			c-3.45-1.36-7.05-3.37-9.65-6.05c-4.21-4.34-0.26-8.64,3.74-11.2c22.58-14.46,53.92-12.63,75.76,2.3
			c5.8,3.97,10.4,8.94,15.06,14.14c4.62,5.16,9.81,9.88,16.8,11.33c14.89,3.09,28.47-6.76,39.99-14.73
			c6.46-4.47,13.24-8.97,20.94-10.95c7.65-1.97,17.07-1.43,20.92,6.54c1.48,3.06,2.43,6.22,4.6,8.9c1.96,2.42,4.53,4.32,7.32,5.67
			c6.43,3.12,13.59,3.48,20.6,2.77c8.87-0.9,17.5-2.8,26.47-2.66c9,0.14,17.91,1.53,26.75,3.12c8.6,1.55,17.18,3.28,25.86,4.35
			c8.9,1.1,17.88,1.37,26.84,1.47c8.92,0.1,17.86,0.25,26.78,0.14c7.61-0.1,15.08-1.08,21.78-4.91
			c12.58-7.19,20.72-20.24,31.89-29.24c3.41-2.75,7-5.26,10.73-7.55c3.49-2.14,7.19-4.4,11.24-5.26
			c8.33-1.77,15.07,4.39,19.27,10.89c4.09,6.32,6.9,13.57,12.32,18.96c4.36,4.33,10.11,7.1,16.12,8.23
			c12.89,2.43,25.78-1.99,35.47-10.56c5.32-4.71,9.65-10.51,13.12-16.68c3.4-6.05,5.37-12.64,8.43-18.82
			c2.54-5.13,6.91-12.14,13.61-10.29c1.55,0.43,2.22-1.98,0.66-2.41c-12.84-3.54-17.62,14.89-21.37,23.29
			c-5.86,13.11-15.42,26.06-29.35,31.21c-13.42,4.96-29.54,2.44-38.24-9.65c-7.27-10.12-12.93-28.6-28.72-26.9
			c-7.37,0.79-14.38,5.88-20.23,10.09c-6.29,4.52-11.93,9.74-17.22,15.39c-4.97,5.31-9.84,10.93-15.83,15.13
			c-6.99,4.91-14.76,6.44-23.19,6.58c-9.09,0.15-18.2-0.03-27.29-0.13c-8.96-0.1-17.94-0.37-26.84-1.47
			c-17.57-2.18-34.82-7.2-52.61-7.47c-8.98-0.13-17.59,1.76-26.47,2.66c-7.65,0.78-15.89,0.35-22.41-4.21
			c-3.35-2.34-5.24-5.48-6.79-9.19c-1.22-2.91-2.5-5.72-5-7.76c-5.12-4.18-12.45-4.27-18.61-2.93
			c-15.17,3.29-26.03,15.55-39.65,22.11c-7.12,3.43-15.56,5.78-23.36,3.34c-7.65-2.39-12.47-9.06-17.65-14.72
			C111.28,39.38,83.34,31.9,58.5,37.91c-6.27,1.52-12.35,3.92-17.92,7.18c-4.6,2.69-11,7.73-7.76,13.77
			c2.89,5.38,10.54,8.66,16.1,10.24c6.76,1.91,13.94,2.05,20.88,1.18c15.79-1.98,29.92-9.67,44.77-14.84
			c7.1-2.47,14.75-4.85,22.36-4.27c6.42,0.49,13.77,4.02,13.48,11.48c-0.29,7.47-7.65,13.03-14.86,11.62
			c-8.23-1.6-12.44-8.65-14.06-16.26c-1.49-7.02-3.46-13.1-8.99-17.99c-4.98-4.4-11.25-6.95-17.81-7.75
			c-7.98-0.97-16.02,0.61-23.55,3.22c-0.54,0.19-0.89,0.63-0.92,1.21c-0.35,8.56,10.73,10.32,16.92,12.04
			c10.83,3,21.04,8.29,29.74,15.4c4.21,3.44,9.82,7.8,11.55,13.15c1.62,5-1.69,8.87-6.03,10.82c-4.7,2.12-9.98,2.25-15.05,2.04
			c-6.15-0.25-12.25-1.33-18.13-3.17c-9.76-3.06-20.3-8.4-25.52-17.64C57.88,59,61.8,46.07,69.37,37.75
			c7.07-7.78,17.27-11.92,27.77-10.91c10.61,1.02,21.82,7.5,25.77,17.81c4.47,11.66-4.36,22.69-14.91,26.85
			c-13.1,5.17-27.84,0.28-40.53-3.81c-0.55-0.18-1.12,0.12-1.41,0.57c-3.71,5.65,1.43,11.43,6.21,14.29
			c6.46,3.86,16.13,5.39,23.09,2.14c6.05-2.82,10.3-9.23,10.36-15.93c0.07-7.16-4.52-13.83-11.05-16.62
			c0.15,0.57,0.3,1.14,0.45,1.71c1.81-3.22,6.7-9.93,11.23-8.22c3.26,1.23,2.74,4.87,1.2,7.22c-1.53,2.34-3.95,4.23-6.5,5.34
			c-3.96,1.71-8.56,2.15-12.82,2.34c-3.4,0.15-7.39,0.39-10.63-0.85C76.09,59.11,75.44,61.52,76.93,62.09L76.93,62.09z"/>
	</g>
</g>
</svg>
