<svg id="Layer_1" data-name="Layer 1" xmlns="http://www.w3.org/2000/svg" viewBox="0 0 79.16 38.92"><defs><style>.cls-1,.cls-2{fill:#fff;}.cls-2{font-size:20px;font-family:AvenirNext-Bold, Avenir Next;font-weight:700;}</style></defs><path class="cls-1" d="M27.84,20.35c-2.55-2.67-5.43-5.55-9.11-6.51a6.17,6.17,0,0,0-4.55.25c-1.09.59-2.15,1.74-1.76,3.08.45,1.52,2.46,2.08,3.79,2.51,2.05.67,4.25,1,6.1,2.2,1.63,1,3.09,2.86,2.29,4.87s-3.05,2.26-4.06.3,0-4,1-5.68a24.18,24.18,0,0,0,2.73-5.74c.87-3.25-.05-6.91-3.37-8.33C17.8,6,15,8.24,14.58,11.36A13.27,13.27,0,0,0,15.4,17a33.64,33.64,0,0,1,1,7c.28,3.79,1.17,7.4,4.28,9.87,2.35,1.87,5.8,2.73,8.51,1.08a7.16,7.16,0,0,0,3.35-6.9c-.55-3.56-4.24-4.64-7.31-5.14-3.94-.64-8.6-.85-12.39.66-2.8,1.12-5,3.71-3.77,6.82C10,32.8,13,34,14.88,31.8c2.13-2.48.83-5.83-.68-8.21-1.12-1.77-2.33-3.54-2.16-5.73a7.84,7.84,0,0,1,2.75-5.15,12.43,12.43,0,0,1,5.89-2.61,12.24,12.24,0,0,1,6.47.09C31,11.68,30.88,16.71,29,19.67c-2.23,3.49-6.16,5.35-9.49,7.59A22.31,22.31,0,0,0,15,31.11a.76.76,0,0,0-.19.73c1.37,3.46,5.6,4.43,8.82,5.35,3.93,1.11,8.38,1.66,12-.76a7.28,7.28,0,0,0,3.14-8.51c-1.16-3.52-4.29-6.36-4-10.29.16-2.17,1-4.26.64-6.46a7,7,0,0,0-2-3.88c-2.3-2.29-5.74-3.23-8.89-3.5C17.82,3.23,9.27,5.23,6.35,12a8.11,8.11,0,0,0-.5,5.44C6.39,19.21,8,20.2,8.74,21.88s-1,3.11-2,4.34a4.19,4.19,0,0,0-1.08,3.9A13.18,13.18,0,0,0,7,32.82L9,36.3c.88,1.55,1.74,3.87,3.46,4.7,1.89.92,3.16-.85,4.83-1.29,1.94-.52,4,.37,5.87-.46s2.91-2.58,4-4.07a66.52,66.52,0,0,0,3.74-5.65,66.23,66.23,0,0,0,5.55-12.07c1.3-3.8,2.9-8.53.59-12.27a5.28,5.28,0,0,0-5.39-2.77C27.78,3.21,24,4.76,20.2,5.87A46.87,46.87,0,0,1,14,7.36a7.93,7.93,0,0,1-2.12.11,3.09,3.09,0,0,1-.48-.13c-.14,0-.08-.07-.08-.08a3.64,3.64,0,0,1,.76-1.45c.57-.78-.73-1.53-1.3-.76s-1.37,2.07-.7,3.07S12,9,13,9c3.74-.23,7.49-1.58,11-2.69,1.85-.58,3.69-1.18,5.55-1.73a11.1,11.1,0,0,1,3.17-.77c1.61.09,2.9,1.67,3.48,3,.88,2.1.5,4.49-.07,6.62a59.13,59.13,0,0,1-4.42,11.5,63.59,63.59,0,0,1-6.65,10.56,9.89,9.89,0,0,1-1.77,1.94,4.6,4.6,0,0,1-3.24.71,7.68,7.68,0,0,0-4.74.84c-1.06.65-2,1.17-2.93.05a14.93,14.93,0,0,1-1.6-2.62c-1.12-2-2.36-3.92-3.37-6-1.53-3.07,2.79-4.5,3-7.4.12-1.5-.82-2.67-1.72-3.75a5.85,5.85,0,0,1-1.39-5.63c.91-3.4,3.9-5.82,7.08-7.06A22.49,22.49,0,0,1,24.3,5.28c2.95.22,6.43,1.14,8.4,3.52,2.63,3.18,0,7.07.58,10.65.48,3.26,2.88,5.68,3.95,8.7,1.3,3.69-1.07,6.92-4.59,8.06-4,1.29-8.54-.29-12.31-1.65-1.6-.59-3.39-1.42-4.06-3.11l-.2.72C20.51,27,29,25.24,31.33,18.28a8.18,8.18,0,0,0-1.17-7.75c-2.21-2.61-6-2.49-9.06-2-3.31.51-6.65,1.86-8.72,4.6a8.21,8.21,0,0,0-.93,8.82c1.23,2.45,4.58,5.85,2.41,8.75-1,1.37-2.65.72-3.27-.64a3.32,3.32,0,0,1,1-4,9.33,9.33,0,0,1,4.68-1.73,28.2,28.2,0,0,1,6.62-.14c3.05.28,8.38.87,8.22,5a5.39,5.39,0,0,1-5.4,5.23c-3.64-.14-6.47-3.36-7.3-6.7a40.89,40.89,0,0,1-.68-6.15,30.21,30.21,0,0,0-1.18-5.73c-.52-1.82-1-3.85-.1-5.65A2.91,2.91,0,0,1,20.76,8.9c4,2.33,2,7.37.22,10.47-1.52,2.61-3.41,5.76-1.58,8.71a3.53,3.53,0,0,0,5.93.38c1.8-2.34.92-5.32-1.2-7.1a12.26,12.26,0,0,0-4.32-2.19c-.92-.29-1.86-.52-2.78-.81s-2.35-.55-3-1.29.58-1.6,1.24-1.85a5,5,0,0,1,2.84,0,12.52,12.52,0,0,1,4.66,2.42,38.07,38.07,0,0,1,4,3.75c.67.7,1.73-.36,1.06-1.06Z" transform="translate(-5.52 -2.34)"/><text class="cls-2" transform="translate(34.89 25.54)">yarn</text></svg>